Coordinates
nRows=4
nColumns=38

# SIMM Motion File Header:
name Coordinates
datacolumns 38
datarows 4
otherdata 1
range 2.51000000000000020000 2.51300000000000030000

Units are S.I. units (second, meters, Newtons, ...)
Angles are in degrees.

endheader
time	pelvis_tilt	pelvis_list	pelvis_rotation	pelvis_tx	pelvis_ty	pelvis_tz	hip_flexion_r	hip_adduction_r	hip_rotation_r	knee_angle_r	ankle_angle_r	subtalar_angle_r	mtp_angle_r	hip_flexion_l	hip_adduction_l	hip_rotation_l	knee_angle_l	ankle_angle_l	subtalar_angle_l	mtp_angle_l	lumbar_extension	lumbar_bending	lumbar_rotation	arm_flex_r	arm_add_r	arm_rot_r	elbow_flex_r	pro_sup_r	wrist_flex_r	wrist_dev_r	arm_flex_l	arm_add_l	arm_rot_l	elbow_flex_l	pro_sup_l	wrist_flex_l	wrist_dev_l
      2.51000000000000020000	     -9.54632476129435050000	      0.89168403263036033000	     -4.09309214676909860000	      0.88438569232281061000	      0.99483781882568456000	     -0.30491546827743243000	    -15.16966590521946900000	     -2.04712333645726960000	     -2.19295489726732430000	    -48.55047256919708300000	    -20.98249296535632500000	      0.00000000000007986063	     -0.00000000000003211367	     40.51396262467289900000	      4.03303054309343700000	     -3.67117735767785860000	    -11.42401033043971200000	      3.58553003297293400000	      0.00000000000001337108	      0.00000000000002598339	     -4.01101269087315340000	     -2.57543913394863560000	     18.18537137745141100000	     -6.02316560817598570000	    -35.91601097813425300000	     -4.33316513560325500000	    125.33837807271151000000	     86.24927530241922100000	     -0.00000000000001640047	      0.00000000000003008819	    -45.90669246689293500000	    -18.81674372162127200000	    -10.80002977397685300000	    116.79780503949142000000	    118.08046149652778000000	      0.00000000000000001029	     -0.00000000000002135289
      2.51100000000000010000	     -9.49905739593982370000	      0.80992485971625028000	     -4.11559265407409300000	      0.88450044546156947000	      0.99466983537301579000	     -0.30481311513785864000	    -15.04495441289433600000	     -1.97193583035861190000	     -2.05522458045167690000	    -49.24411147126070200000	    -20.88611261279427100000	      0.00000000000008024046	     -0.00000000000003219579	     40.30683339749882100000	      3.96345267040466980000	     -3.73961367274695620000	    -11.23981517736066000000	      3.63609550106363870000	      0.00000000000001344104	      0.00000000000002612433	     -4.05614663812228040000	     -2.50134965293114900000	     18.15123590631419900000	     -6.12677059167322020000	    -35.87725529778202100000	     -4.32816637389693160000	    125.28327851806631000000	     86.26010824111561700000	     -0.00000000000001646219	      0.00000000000003022645	    -45.87503579268902600000	    -18.72498786402673700000	    -10.88163827070702000000	    116.83451304068799000000	    118.06969178985908000000	      0.00000000000000000728	     -0.00000000000002148072
      2.51200000000000000000	     -9.45197718707555620000	      0.73090744496938331000	     -4.13763017871561440000	      0.88461467229585355000	      0.99449129454290564000	     -0.30471078042943384000	    -14.91717920363706400000	     -1.90003332435713210000	     -1.92364475798121240000	    -49.94222124603315600000	    -20.79385599580154300000	      0.00000000000008061926	     -0.00000000000003227806	     40.10360003153890300000	      3.89611931526650680000	     -3.80957765493392620000	    -11.07454626800947400000	      3.68971917707530040000	      0.00000000000001350968	      0.00000000000002626481	     -4.10039677208970590000	     -2.43060567031837490000	     18.11585693188410000000	     -6.23226394244456830000	    -35.83731588787701800000	     -4.32267821866105620000	    125.22543929843603000000	     86.27136704550477500000	     -0.00000000000001652351	      0.00000000000003036792	    -45.84188083425156900000	    -18.63575303577534100000	    -10.96244472749326700000	    116.87097740138070000000	    118.05610759746897000000	      0.00000000000000000422	     -0.00000000000002160787
      2.51300000000000030000	     -9.40513229406941780000	      0.65474930702991785000	     -4.15924624320085370000	      0.88472847610870453000	      0.99430213003627999000	     -0.30460851836637998000	    -14.78631911972386000000	     -1.83158155705055960000	     -1.79806388377221450000	    -50.64470149803827300000	    -20.70542904256596700000	      0.00000000000008100005	     -0.00000000000003236090	     39.90416950977922300000	      3.83114542586141440000	     -3.88082149617751380000	    -10.92780886811020500000	      3.74618853650845550000	      0.00000000000001357916	      0.00000000000002640722	     -4.14366687517926910000	     -2.36331598896749990000	     18.07928898599410100000	     -6.33965626325197550000	    -35.79620033245724600000	     -4.31675734863228920000	    125.16486380710455000000	     86.28315469847517200000	     -0.00000000000001658405	      0.00000000000003051011	    -45.80723783615189900000	    -18.54910017104715400000	    -11.04239553692770700000	    116.90718919417678000000	    118.03969393681270000000	      0.00000000000000000121	     -0.00000000000002173508
